<?xml version="1.0" standalone="no"?><!DOCTYPE svg PUBLIC "-//W3C//DTD SVG 1.1//EN" "http://www.w3.org/Graphics/SVG/1.1/DTD/svg11.dtd"><svg t="1584629985344" class="icon" viewBox="0 0 1024 1024" version="1.1" xmlns="http://www.w3.org/2000/svg" p-id="4389" width="16" height="16" xmlns:xlink="http://www.w3.org/1999/xlink"><defs><style type="text/css"></style></defs><path d="M515.057 32c-269.045 0-483.057 214.012-483.057 483.057 0 262.93 214.013 476.943 483.057 476.943 262.93 0 476.943-214.013 476.943-476.943 0-269.045-214.012-483.057-476.943-483.057v0zM515.057 80.917c238.471 0 434.14 189.554 434.14 434.14 0 238.471-195.668 434.14-434.14 434.14-244.586 0-434.14-195.668-434.14-434.14 0-244.586 189.554-434.14 434.14-434.14zM447.796 264.357l311.847 189.554c55.032 30.573 48.917 85.605 0 116.179v0l-311.847 189.554c-24.458 12.23-55.032 24.458-85.605 6.114-18.344-12.23-24.458-36.688-24.458-61.147v-385.222c0-24.458 6.114-48.917 24.458-61.147 30.573-18.344 61.147-6.114 85.605 6.114z" p-id="4390" fill="#de3b26"></path></svg>